{
	"asset":{
		"generator":"Khronos glTF Blender I/O v3.5.30",
		"version":"2.0"
	},
	"extensionsUsed":[
		"KHR_materials_specular",
		"KHR_materials_ior"
	],
	"scene":0,
	"scenes":[
		{
			"name":"Scene",
			"nodes":[
				0,
				1,
				2
			]
		}
	],
	"nodes":[
		{
			"mesh":0,
			"name":"TQ_ARD-node"
		},
		{
			"mesh":1,
			"name":"TQ_ARD_D2-node"
		},
		{
			"mesh":2,
			"name":"TQ_ARD-node.001"
		}
	],
	"materials":[
		{
			"doubleSided":true,
			"extensions":{
				"KHR_materials_specular":{
					"specularColorFactor":[
						0,
						0,
						0
					]
				},
				"KHR_materials_ior":{
					"ior":0
				}
			},
			"name":"TQ_ARD_front",
			"pbrMetallicRoughness":{
				"baseColorTexture":{
					"index":0
				},
				"metallicFactor":0,
				"roughnessFactor":0.5
			}
		},
		{
			"doubleSided":true,
			"extensions":{
				"KHR_materials_specular":{
					"specularColorFactor":[
						0,
						0,
						0
					]
				},
				"KHR_materials_ior":{
					"ior":0
				}
			},
			"name":"TQ_ARD_back",
			"pbrMetallicRoughness":{
				"baseColorTexture":{
					"index":1
				},
				"metallicFactor":0,
				"roughnessFactor":0.5
			}
		},
		{
			"doubleSided":true,
			"extensions":{
				"KHR_materials_specular":{
					"specularColorFactor":[
						0,
						0,
						0
					]
				},
				"KHR_materials_ior":{
					"ior":0
				}
			},
			"name":"TQ_ARD_edge",
			"pbrMetallicRoughness":{
				"baseColorTexture":{
					"index":2
				},
				"metallicFactor":0,
				"roughnessFactor":0.5
			}
		},
		{
			"doubleSided":true,
			"extensions":{
				"KHR_materials_specular":{
					"specularColorFactor":[
						0,
						0,
						0
					]
				},
				"KHR_materials_ior":{
					"ior":0
				}
			},
			"name":"TQ_ARD_D2_front",
			"pbrMetallicRoughness":{
				"baseColorTexture":{
					"index":3
				},
				"metallicFactor":0,
				"roughnessFactor":0.5
			}
		},
		{
			"doubleSided":true,
			"extensions":{
				"KHR_materials_specular":{
					"specularColorFactor":[
						0,
						0,
						0
					]
				},
				"KHR_materials_ior":{
					"ior":0
				}
			},
			"name":"TQ_ARD_D2_back",
			"pbrMetallicRoughness":{
				"baseColorTexture":{
					"index":4
				},
				"metallicFactor":0,
				"roughnessFactor":0.5
			}
		},
		{
			"doubleSided":true,
			"extensions":{
				"KHR_materials_specular":{
					"specularColorFactor":[
						0,
						0,
						0
					]
				},
				"KHR_materials_ior":{
					"ior":0
				}
			},
			"name":"TQ_ARD_D2_edge",
			"pbrMetallicRoughness":{
				"baseColorTexture":{
					"index":5
				},
				"metallicFactor":0,
				"roughnessFactor":0.5
			}
		},
		{
			"doubleSided":true,
			"extensions":{
				"KHR_materials_specular":{
					"specularColorFactor":[
						0,
						0,
						0
					]
				},
				"KHR_materials_ior":{
					"ior":0
				}
			},
			"name":"TQ_ARD_front.001",
			"pbrMetallicRoughness":{
				"baseColorTexture":{
					"index":6
				},
				"metallicFactor":0,
				"roughnessFactor":0.5
			}
		},
		{
			"doubleSided":true,
			"extensions":{
				"KHR_materials_specular":{
					"specularColorFactor":[
						0,
						0,
						0
					]
				},
				"KHR_materials_ior":{
					"ior":0
				}
			},
			"name":"TQ_ARD_back.001",
			"pbrMetallicRoughness":{
				"baseColorTexture":{
					"index":7
				},
				"metallicFactor":0,
				"roughnessFactor":0.5
			}
		},
		{
			"doubleSided":true,
			"extensions":{
				"KHR_materials_specular":{
					"specularColorFactor":[
						0,
						0,
						0
					]
				},
				"KHR_materials_ior":{
					"ior":0
				}
			},
			"name":"TQ_ARD_edge.001",
			"pbrMetallicRoughness":{
				"baseColorTexture":{
					"index":8
				},
				"metallicFactor":0,
				"roughnessFactor":0.5
			}
		}
	],
	"meshes":[
		{
			"name":"TQ_ARD-geom",
			"primitives":[
				{
					"attributes":{
						"POSITION":0,
						"TEXCOORD_0":1,
						"NORMAL":2
					},
					"indices":3,
					"material":0
				},
				{
					"attributes":{
						"POSITION":4,
						"TEXCOORD_0":5,
						"NORMAL":6
					},
					"indices":7,
					"material":1
				},
				{
					"attributes":{
						"POSITION":8,
						"TEXCOORD_0":9,
						"NORMAL":10
					},
					"indices":11,
					"material":2
				}
			]
		},
		{
			"name":"TQ_ARD_D2-geom",
			"primitives":[
				{
					"attributes":{
						"POSITION":12,
						"TEXCOORD_0":13,
						"NORMAL":14
					},
					"indices":15,
					"material":3
				},
				{
					"attributes":{
						"POSITION":16,
						"TEXCOORD_0":17,
						"NORMAL":18
					},
					"indices":19,
					"material":4
				},
				{
					"attributes":{
						"POSITION":20,
						"TEXCOORD_0":21,
						"NORMAL":22
					},
					"indices":23,
					"material":5
				}
			]
		},
		{
			"name":"TQ_ARD-geom.001",
			"primitives":[
				{
					"attributes":{
						"POSITION":24,
						"TEXCOORD_0":25,
						"NORMAL":26
					},
					"indices":27,
					"material":6
				},
				{
					"attributes":{
						"POSITION":28,
						"TEXCOORD_0":29,
						"NORMAL":30
					},
					"indices":31,
					"material":7
				},
				{
					"attributes":{
						"POSITION":32,
						"TEXCOORD_0":33,
						"NORMAL":34
					},
					"indices":35,
					"material":8
				}
			]
		}
	],
	"textures":[
		{
			"sampler":0,
			"source":0
		},
		{
			"sampler":0,
			"source":1
		},
		{
			"sampler":0,
			"source":2
		},
		{
			"sampler":0,
			"source":3
		},
		{
			"sampler":0,
			"source":4
		},
		{
			"sampler":0,
			"source":5
		},
		{
			"sampler":0,
			"source":0
		},
		{
			"sampler":0,
			"source":1
		},
		{
			"sampler":0,
			"source":2
		}
	],
	"images":[
		{
			"bufferView":4,
			"mimeType":"image/png",
			"name":"TQ_ARD-I3"
		},
		{
			"bufferView":9,
			"mimeType":"image/png",
			"name":"TQ_ARD-I2"
		},
		{
			"bufferView":14,
			"mimeType":"image/png",
			"name":"TQ_ARD-I1"
		},
		{
			"bufferView":19,
			"mimeType":"image/png",
			"name":"TQ_ARD_D2-I6"
		},
		{
			"bufferView":24,
			"mimeType":"image/png",
			"name":"TQ_ARD_D2-I5"
		},
		{
			"bufferView":29,
			"mimeType":"image/png",
			"name":"TQ_ARD_D2-I4"
		}
	],
	"accessors":[
		{
			"bufferView":0,
			"componentType":5126,
			"count":1924,
			"max":[
				0.3599853515625,
				-0.017162272706627846,
				0.1866455078125
			],
			"min":[
				-0.343231201171875,
				-0.10419170558452606,
				-0.1225433349609375
			],
			"type":"VEC3"
		},
		{
			"bufferView":1,
			"componentType":5126,
			"count":1924,
			"type":"VEC2"
		},
		{
			"bufferView":2,
			"componentType":5126,
			"count":1924,
			"type":"VEC3"
		},
		{
			"bufferView":3,
			"componentType":5123,
			"count":5307,
			"type":"SCALAR"
		},
		{
			"bufferView":5,
			"componentType":5126,
			"count":2133,
			"max":[
				0.358367919921875,
				-0.017267415300011635,
				0.1843719482421875
			],
			"min":[
				-0.34161376953125,
				-0.10191552340984344,
				-0.119903564453125
			],
			"type":"VEC3"
		},
		{
			"bufferView":6,
			"componentType":5126,
			"count":2133,
			"type":"VEC2"
		},
		{
			"bufferView":7,
			"componentType":5126,
			"count":2133,
			"type":"VEC3"
		},
		{
			"bufferView":8,
			"componentType":5123,
			"count":5307,
			"type":"SCALAR"
		},
		{
			"bufferView":10,
			"componentType":5126,
			"count":3354,
			"max":[
				0.3599853515625,
				-0.017162272706627846,
				0.1866455078125
			],
			"min":[
				-0.343231201171875,
				-0.10419170558452606,
				-0.1225433349609375
			],
			"type":"VEC3"
		},
		{
			"bufferView":11,
			"componentType":5126,
			"count":3354,
			"type":"VEC2"
		},
		{
			"bufferView":12,
			"componentType":5126,
			"count":3354,
			"type":"VEC3"
		},
		{
			"bufferView":13,
			"componentType":5123,
			"count":7782,
			"type":"SCALAR"
		},
		{
			"bufferView":15,
			"componentType":5126,
			"count":705,
			"max":[
				0.35502633452415466,
				-0.029989849776029587,
				0.13118301331996918
			],
			"min":[
				-0.33897390961647034,
				-0.02998986840248108,
				-0.11782516539096832
			],
			"type":"VEC3"
		},
		{
			"bufferView":16,
			"componentType":5126,
			"count":705,
			"type":"VEC2"
		},
		{
			"bufferView":17,
			"componentType":5126,
			"count":705,
			"type":"VEC3"
		},
		{
			"bufferView":18,
			"componentType":5123,
			"count":2142,
			"type":"SCALAR"
		},
		{
			"bufferView":20,
			"componentType":5126,
			"count":708,
			"max":[
				0.35502633452415466,
				-0.0254904143512249,
				0.13118301331996918
			],
			"min":[
				-0.33897390961647034,
				-0.02549043297767639,
				-0.11782516539096832
			],
			"type":"VEC3"
		},
		{
			"bufferView":21,
			"componentType":5126,
			"count":708,
			"type":"VEC2"
		},
		{
			"bufferView":22,
			"componentType":5126,
			"count":708,
			"type":"VEC3"
		},
		{
			"bufferView":23,
			"componentType":5123,
			"count":2142,
			"type":"SCALAR"
		},
		{
			"bufferView":25,
			"componentType":5126,
			"count":1735,
			"max":[
				0.35502633452415466,
				-0.0254904143512249,
				0.13118301331996918
			],
			"min":[
				-0.33897390961647034,
				-0.02998986840248108,
				-0.11782516539096832
			],
			"type":"VEC3"
		},
		{
			"bufferView":26,
			"componentType":5126,
			"count":1735,
			"type":"VEC2"
		},
		{
			"bufferView":27,
			"componentType":5126,
			"count":1735,
			"type":"VEC3"
		},
		{
			"bufferView":28,
			"componentType":5123,
			"count":4230,
			"type":"SCALAR"
		},
		{
			"bufferView":30,
			"componentType":5126,
			"count":330,
			"max":[
				0.3500497341156006,
				0.25410979986190796,
				-0.09184560179710388
			],
			"min":[
				-0.3499460816383362,
				-0.05659227818250656,
				-0.12244109809398651
			],
			"type":"VEC3"
		},
		{
			"bufferView":31,
			"componentType":5126,
			"count":330,
			"type":"VEC2"
		},
		{
			"bufferView":32,
			"componentType":5126,
			"count":330,
			"type":"VEC3"
		},
		{
			"bufferView":33,
			"componentType":5123,
			"count":816,
			"type":"SCALAR"
		},
		{
			"bufferView":34,
			"componentType":5126,
			"count":332,
			"max":[
				0.3500497341156006,
				0.25244757533073425,
				-0.09430355578660965
			],
			"min":[
				-0.3499460816383362,
				-0.056906186044216156,
				-0.11795205622911453
			],
			"type":"VEC3"
		},
		{
			"bufferView":35,
			"componentType":5126,
			"count":332,
			"type":"VEC2"
		},
		{
			"bufferView":36,
			"componentType":5126,
			"count":332,
			"type":"VEC3"
		},
		{
			"bufferView":37,
			"componentType":5123,
			"count":816,
			"type":"SCALAR"
		},
		{
			"bufferView":38,
			"componentType":5126,
			"count":871,
			"max":[
				0.3500497341156006,
				0.25410979986190796,
				-0.09184560179710388
			],
			"min":[
				-0.3499460816383362,
				-0.056906186044216156,
				-0.12244109809398651
			],
			"type":"VEC3"
		},
		{
			"bufferView":39,
			"componentType":5126,
			"count":871,
			"type":"VEC2"
		},
		{
			"bufferView":40,
			"componentType":5126,
			"count":871,
			"type":"VEC3"
		},
		{
			"bufferView":41,
			"componentType":5123,
			"count":1644,
			"type":"SCALAR"
		}
	],
	"bufferViews":[
		{
			"buffer":0,
			"byteLength":23088,
			"byteOffset":0,
			"target":34962
		},
		{
			"buffer":0,
			"byteLength":15392,
			"byteOffset":23088,
			"target":34962
		},
		{
			"buffer":0,
			"byteLength":23088,
			"byteOffset":38480,
			"target":34962
		},
		{
			"buffer":0,
			"byteLength":10614,
			"byteOffset":61568,
			"target":34963
		},
		{
			"buffer":0,
			"byteLength":410911,
			"byteOffset":72184
		},
		{
			"buffer":0,
			"byteLength":25596,
			"byteOffset":483096,
			"target":34962
		},
		{
			"buffer":0,
			"byteLength":17064,
			"byteOffset":508692,
			"target":34962
		},
		{
			"buffer":0,
			"byteLength":25596,
			"byteOffset":525756,
			"target":34962
		},
		{
			"buffer":0,
			"byteLength":10614,
			"byteOffset":551352,
			"target":34963
		},
		{
			"buffer":0,
			"byteLength":487404,
			"byteOffset":561968
		},
		{
			"buffer":0,
			"byteLength":40248,
			"byteOffset":1049372,
			"target":34962
		},
		{
			"buffer":0,
			"byteLength":26832,
			"byteOffset":1089620,
			"target":34962
		},
		{
			"buffer":0,
			"byteLength":40248,
			"byteOffset":1116452,
			"target":34962
		},
		{
			"buffer":0,
			"byteLength":15564,
			"byteOffset":1156700,
			"target":34963
		},
		{
			"buffer":0,
			"byteLength":223603,
			"byteOffset":1172264
		},
		{
			"buffer":0,
			"byteLength":8460,
			"byteOffset":1395868,
			"target":34962
		},
		{
			"buffer":0,
			"byteLength":5640,
			"byteOffset":1404328,
			"target":34962
		},
		{
			"buffer":0,
			"byteLength":8460,
			"byteOffset":1409968,
			"target":34962
		},
		{
			"buffer":0,
			"byteLength":4284,
			"byteOffset":1418428,
			"target":34963
		},
		{
			"buffer":0,
			"byteLength":182011,
			"byteOffset":1422712
		},
		{
			"buffer":0,
			"byteLength":8496,
			"byteOffset":1604724,
			"target":34962
		},
		{
			"buffer":0,
			"byteLength":5664,
			"byteOffset":1613220,
			"target":34962
		},
		{
			"buffer":0,
			"byteLength":8496,
			"byteOffset":1618884,
			"target":34962
		},
		{
			"buffer":0,
			"byteLength":4284,
			"byteOffset":1627380,
			"target":34963
		},
		{
			"buffer":0,
			"byteLength":233780,
			"byteOffset":1631664
		},
		{
			"buffer":0,
			"byteLength":20820,
			"byteOffset":1865444,
			"target":34962
		},
		{
			"buffer":0,
			"byteLength":13880,
			"byteOffset":1886264,
			"target":34962
		},
		{
			"buffer":0,
			"byteLength":20820,
			"byteOffset":1900144,
			"target":34962
		},
		{
			"buffer":0,
			"byteLength":8460,
			"byteOffset":1920964,
			"target":34963
		},
		{
			"buffer":0,
			"byteLength":223603,
			"byteOffset":1929424
		},
		{
			"buffer":0,
			"byteLength":3960,
			"byteOffset":2153028,
			"target":34962
		},
		{
			"buffer":0,
			"byteLength":2640,
			"byteOffset":2156988,
			"target":34962
		},
		{
			"buffer":0,
			"byteLength":3960,
			"byteOffset":2159628,
			"target":34962
		},
		{
			"buffer":0,
			"byteLength":1632,
			"byteOffset":2163588,
			"target":34963
		},
		{
			"buffer":0,
			"byteLength":3984,
			"byteOffset":2165220,
			"target":34962
		},
		{
			"buffer":0,
			"byteLength":2656,
			"byteOffset":2169204,
			"target":34962
		},
		{
			"buffer":0,
			"byteLength":3984,
			"byteOffset":2171860,
			"target":34962
		},
		{
			"buffer":0,
			"byteLength":1632,
			"byteOffset":2175844,
			"target":34963
		},
		{
			"buffer":0,
			"byteLength":10452,
			"byteOffset":2177476,
			"target":34962
		},
		{
			"buffer":0,
			"byteLength":6968,
			"byteOffset":2187928,
			"target":34962
		},
		{
			"buffer":0,
			"byteLength":10452,
			"byteOffset":2194896,
			"target":34962
		},
		{
			"buffer":0,
			"byteLength":3288,
			"byteOffset":2205348,
			"target":34963
		}
	],
	"samplers":[
		{
			"magFilter":9729,
			"minFilter":9987
		}
	],
	"buffers":[
		{
			"byteLength":2208636,
			"uri":"data:application/octet-stream;base64,"
		}
	]
}
