{
	"asset":{
		"generator":"Khronos glTF Blender I/O v3.5.30",
		"version":"2.0"
	},
	"extensionsUsed":[
		"KHR_materials_specular",
		"KHR_materials_ior"
	],
	"scene":0,
	"scenes":[
		{
			"name":"Scene",
			"nodes":[
				0,
				1
			]
		}
	],
	"nodes":[
		{
			"mesh":0,
			"name":"TQ_ARD-node"
		},
		{
			"mesh":1,
			"name":"TQ_ARD-node.001"
		}
	],
	"materials":[
		{
			"doubleSided":true,
			"extensions":{
				"KHR_materials_specular":{
					"specularColorFactor":[
						0,
						0,
						0
					]
				},
				"KHR_materials_ior":{
					"ior":0
				}
			},
			"name":"TQ_ARD_front",
			"pbrMetallicRoughness":{
				"baseColorTexture":{
					"index":0
				},
				"metallicFactor":0,
				"roughnessFactor":0.5
			}
		},
		{
			"doubleSided":true,
			"extensions":{
				"KHR_materials_specular":{
					"specularColorFactor":[
						0,
						0,
						0
					]
				},
				"KHR_materials_ior":{
					"ior":0
				}
			},
			"name":"TQ_ARD_back",
			"pbrMetallicRoughness":{
				"baseColorFactor":[
					0.996078372001648,
					0.9019607901573181,
					0.6627451181411743,
					1
				],
				"metallicFactor":0,
				"roughnessFactor":0.5
			}
		},
		{
			"doubleSided":true,
			"extensions":{
				"KHR_materials_specular":{
					"specularColorFactor":[
						0,
						0,
						0
					]
				},
				"KHR_materials_ior":{
					"ior":0
				}
			},
			"name":"TQ_ARD_edge",
			"pbrMetallicRoughness":{
				"baseColorTexture":{
					"index":1
				},
				"metallicFactor":0,
				"roughnessFactor":0.5
			}
		},
		{
			"doubleSided":true,
			"extensions":{
				"KHR_materials_specular":{
					"specularColorFactor":[
						0,
						0,
						0
					]
				},
				"KHR_materials_ior":{
					"ior":0
				}
			},
			"name":"TQ_ARD_front.001",
			"pbrMetallicRoughness":{
				"baseColorTexture":{
					"index":2
				},
				"metallicFactor":0,
				"roughnessFactor":0.5
			}
		},
		{
			"doubleSided":true,
			"extensions":{
				"KHR_materials_specular":{
					"specularColorFactor":[
						0,
						0,
						0
					]
				},
				"KHR_materials_ior":{
					"ior":0
				}
			},
			"name":"back-dil",
			"pbrMetallicRoughness":{
				"baseColorFactor":[
					0.5216502547264099,
					0.3268246054649353,
					0.1865556538105011,
					1
				],
				"metallicFactor":0
			}
		},
		{
			"doubleSided":true,
			"extensions":{
				"KHR_materials_specular":{
					"specularColorFactor":[
						0,
						0,
						0
					]
				},
				"KHR_materials_ior":{
					"ior":0
				}
			},
			"name":"TQ_ARD_edge.001",
			"pbrMetallicRoughness":{
				"baseColorTexture":{
					"index":3
				},
				"metallicFactor":0,
				"roughnessFactor":0.5
			}
		}
	],
	"meshes":[
		{
			"name":"TQ_ARD-geom",
			"primitives":[
				{
					"attributes":{
						"POSITION":0,
						"TEXCOORD_0":1,
						"NORMAL":2
					},
					"indices":3,
					"material":0
				},
				{
					"attributes":{
						"POSITION":4,
						"TEXCOORD_0":5,
						"NORMAL":6
					},
					"indices":7,
					"material":1
				},
				{
					"attributes":{
						"POSITION":8,
						"TEXCOORD_0":9,
						"NORMAL":10
					},
					"indices":11,
					"material":2
				}
			]
		},
		{
			"name":"TQ_ARD-geom.001",
			"primitives":[
				{
					"attributes":{
						"POSITION":12,
						"TEXCOORD_0":13,
						"NORMAL":14
					},
					"indices":15,
					"material":3
				},
				{
					"attributes":{
						"POSITION":16,
						"TEXCOORD_0":17,
						"NORMAL":18
					},
					"indices":19,
					"material":4
				},
				{
					"attributes":{
						"POSITION":20,
						"TEXCOORD_0":21,
						"NORMAL":22
					},
					"indices":23,
					"material":5
				}
			]
		}
	],
	"textures":[
		{
			"sampler":0,
			"source":0
		},
		{
			"sampler":0,
			"source":1
		},
		{
			"sampler":0,
			"source":0
		},
		{
			"sampler":0,
			"source":1
		}
	],
	"images":[
		{
			"bufferView":4,
			"mimeType":"image/jpeg",
			"name":"2"
		},
		{
			"bufferView":13,
			"mimeType":"image/png",
			"name":"TQ_ARD-I1"
		}
	],
	"accessors":[
		{
			"bufferView":0,
			"componentType":5126,
			"count":1108,
			"max":[
				-0.04978112876415253,
				0.06245015934109688,
				0.31056487560272217
			],
			"min":[
				-0.22237060964107513,
				-0.005235128104686737,
				-0.10002261400222778
			],
			"type":"VEC3"
		},
		{
			"bufferView":1,
			"componentType":5126,
			"count":1108,
			"type":"VEC2"
		},
		{
			"bufferView":2,
			"componentType":5126,
			"count":1108,
			"type":"VEC3"
		},
		{
			"bufferView":3,
			"componentType":5123,
			"count":3234,
			"type":"SCALAR"
		},
		{
			"bufferView":5,
			"componentType":5126,
			"count":1008,
			"max":[
				-0.05057486146688461,
				0.06150142475962639,
				0.3097711205482483
			],
			"min":[
				-0.22157685458660126,
				-0.004243828356266022,
				-0.09922882914543152
			],
			"type":"VEC3"
		},
		{
			"bufferView":6,
			"componentType":5126,
			"count":1008,
			"type":"VEC2"
		},
		{
			"bufferView":7,
			"componentType":5126,
			"count":1008,
			"type":"VEC3"
		},
		{
			"bufferView":8,
			"componentType":5123,
			"count":3234,
			"type":"SCALAR"
		},
		{
			"bufferView":9,
			"componentType":5126,
			"count":1697,
			"max":[
				-0.05024608224630356,
				0.06245015934109688,
				0.31056487560272217
			],
			"min":[
				-0.22237055003643036,
				-0.005235128104686737,
				-0.10002261400222778
			],
			"type":"VEC3"
		},
		{
			"bufferView":10,
			"componentType":5126,
			"count":1697,
			"type":"VEC2"
		},
		{
			"bufferView":11,
			"componentType":5126,
			"count":1697,
			"type":"VEC3"
		},
		{
			"bufferView":12,
			"componentType":5123,
			"count":3768,
			"type":"SCALAR"
		},
		{
			"bufferView":14,
			"componentType":5126,
			"count":1124,
			"max":[
				0.29549652338027954,
				0.4772788882255554,
				0.02658533677458763
			],
			"min":[
				0.00323563814163208,
				-0.0013136118650436401,
				-0.12495328485965729
			],
			"type":"VEC3"
		},
		{
			"bufferView":15,
			"componentType":5126,
			"count":1124,
			"type":"VEC2"
		},
		{
			"bufferView":16,
			"componentType":5126,
			"count":1124,
			"type":"VEC3"
		},
		{
			"bufferView":17,
			"componentType":5123,
			"count":3234,
			"type":"SCALAR"
		},
		{
			"bufferView":18,
			"componentType":5126,
			"count":1037,
			"max":[
				0.2950856685638428,
				0.47590404748916626,
				0.025580350309610367
			],
			"min":[
				0.003646552562713623,
				-0.0005198568105697632,
				-0.12423257529735565
			],
			"type":"VEC3"
		},
		{
			"bufferView":19,
			"componentType":5126,
			"count":1037,
			"type":"VEC2"
		},
		{
			"bufferView":20,
			"componentType":5126,
			"count":1037,
			"type":"VEC3"
		},
		{
			"bufferView":21,
			"componentType":5123,
			"count":3234,
			"type":"SCALAR"
		},
		{
			"bufferView":22,
			"componentType":5126,
			"count":1693,
			"max":[
				0.29549652338027954,
				0.4772788882255554,
				0.02658533677458763
			],
			"min":[
				0.00323563814163208,
				-0.0013136118650436401,
				-0.12495328485965729
			],
			"type":"VEC3"
		},
		{
			"bufferView":23,
			"componentType":5126,
			"count":1693,
			"type":"VEC2"
		},
		{
			"bufferView":24,
			"componentType":5126,
			"count":1693,
			"type":"VEC3"
		},
		{
			"bufferView":25,
			"componentType":5123,
			"count":3768,
			"type":"SCALAR"
		}
	],
	"bufferViews":[
		{
			"buffer":0,
			"byteLength":13296,
			"byteOffset":0,
			"target":34962
		},
		{
			"buffer":0,
			"byteLength":8864,
			"byteOffset":13296,
			"target":34962
		},
		{
			"buffer":0,
			"byteLength":13296,
			"byteOffset":22160,
			"target":34962
		},
		{
			"buffer":0,
			"byteLength":6468,
			"byteOffset":35456,
			"target":34963
		},
		{
			"buffer":0,
			"byteLength":924187,
			"byteOffset":41924
		},
		{
			"buffer":0,
			"byteLength":12096,
			"byteOffset":966112,
			"target":34962
		},
		{
			"buffer":0,
			"byteLength":8064,
			"byteOffset":978208,
			"target":34962
		},
		{
			"buffer":0,
			"byteLength":12096,
			"byteOffset":986272,
			"target":34962
		},
		{
			"buffer":0,
			"byteLength":6468,
			"byteOffset":998368,
			"target":34963
		},
		{
			"buffer":0,
			"byteLength":20364,
			"byteOffset":1004836,
			"target":34962
		},
		{
			"buffer":0,
			"byteLength":13576,
			"byteOffset":1025200,
			"target":34962
		},
		{
			"buffer":0,
			"byteLength":20364,
			"byteOffset":1038776,
			"target":34962
		},
		{
			"buffer":0,
			"byteLength":7536,
			"byteOffset":1059140,
			"target":34963
		},
		{
			"buffer":0,
			"byteLength":767,
			"byteOffset":1066676
		},
		{
			"buffer":0,
			"byteLength":13488,
			"byteOffset":1067444,
			"target":34962
		},
		{
			"buffer":0,
			"byteLength":8992,
			"byteOffset":1080932,
			"target":34962
		},
		{
			"buffer":0,
			"byteLength":13488,
			"byteOffset":1089924,
			"target":34962
		},
		{
			"buffer":0,
			"byteLength":6468,
			"byteOffset":1103412,
			"target":34963
		},
		{
			"buffer":0,
			"byteLength":12444,
			"byteOffset":1109880,
			"target":34962
		},
		{
			"buffer":0,
			"byteLength":8296,
			"byteOffset":1122324,
			"target":34962
		},
		{
			"buffer":0,
			"byteLength":12444,
			"byteOffset":1130620,
			"target":34962
		},
		{
			"buffer":0,
			"byteLength":6468,
			"byteOffset":1143064,
			"target":34963
		},
		{
			"buffer":0,
			"byteLength":20316,
			"byteOffset":1149532,
			"target":34962
		},
		{
			"buffer":0,
			"byteLength":13544,
			"byteOffset":1169848,
			"target":34962
		},
		{
			"buffer":0,
			"byteLength":20316,
			"byteOffset":1183392,
			"target":34962
		},
		{
			"buffer":0,
			"byteLength":7536,
			"byteOffset":1203708,
			"target":34963
		}
	],
	"samplers":[
		{
			"magFilter":9729,
			"minFilter":9987
		}
	],
	"buffers":[
		{
			"byteLength":1211244,
			"uri":"data:application/octet-stream;base64,"
		}
	]
}
