<?xml version="1.0" encoding="utf-8"?>
<!-- Generator: Adobe Illustrator 27.1.0, SVG Export Plug-In . SVG Version: 6.00 Build 0)  -->
<svg version="1.1" id="Capa_1" xmlns="http://www.w3.org/2000/svg" xmlns:xlink="http://www.w3.org/1999/xlink" x="0px" y="0px"
	 viewBox="0 0 270.9 270.2" style="enable-background:new 0 0 270.9 270.2;" xml:space="preserve">
<style type="text/css">
	.st0{fill-rule:evenodd;clip-rule:evenodd;fill:#EBA900;}
	.st1{fill-rule:evenodd;clip-rule:evenodd;fill:#2EA836;}
</style>
<path class="st0" d="M46.1,0h177.9c25.5,0,46.1,20.7,46.1,46.1v177.9c0,25.5-20.7,46.1-46.1,46.1H46.1C20.7,270.2,0,249.5,0,224.1
	V46.1C0,20.7,20.7,0,46.1,0z"/>
<g>
	<g>
		<path class="st1" d="M14.4,127.7c5.5,1.1,8,4.1,10.8,4.1h2c0.2-0.7-0.3-1.4,0-2c3,1.8,2.6,0.8,4.7,2.7c4.1-4.1,1.1-1.2,2-4.1
			c15,6.8,22.3,4.1,21.5,8.3L53.1,151c-7.7-5.5-6.3-3.8-7.7-3.8c0,0-10.4-7.4-14.1-7.4c0,0-14.6-10.7-18.8-12.1
			C12.5,127.7,14.4,127.7,14.4,127.7z M121.1,99.6c2.8,2.1,3.8,5.6,6.7,7.3l7.3,1.8C135.1,101,127.1,99.9,121.1,99.6z M145.6,110.4
			c4.9,4.2,16.8,12.6,23.1,10.1C160.3,115,156.5,111.1,145.6,110.4z M102.2,69.5L97.3,67c-2.1,1.4-4.9,5.9-2.4,6.3
			c6,1.1,14,7.3,17.5,7.3c1,0,1.4-1.4,1.4-2.4C113.7,77.1,103.6,70.2,102.2,69.5z M122.2,84.9c4.2,1.8,8.1,3.5,12.9,4.2V94
			C129.5,92.6,124.6,88.4,122.2,84.9z M109.9,55.1c0,1.4,9.5,8.7,13.5,8.7c1.3,0,2.6,0.1,4.1,0c-2.6-4-9-9.4-13.5-9.4
			c0,0,1.2-0.9-4.1-2.7c0.9-0.1,4.1,0,5.4,0c4.3,0,9.9,6.4,18.8,6c-0.4-0.2-2,0-2,0c2.3-0.9,2.7-1.4,2.7-1.4c0.1,0,0.2,0.6,5.4,3.4
			c-1.6-0.1-0.5-0.3-3.4,0c1.6,1.9,15.4,12.8,22.2,12.8c0,0-0.3,0.8,3.4,2v-2c-10.6-6.3-10.7-4.3-11.4-8.1c1.7,2.5,2,2,2,2
			s3,1.5,4.1,2c0-5.1-3.6-7.4-8.1-7.4c-0.4,0-1.8-2-4.7-2h-2c0,0-0.3-0.3-6-4.7h2c0.3,0.2,17.7,8.7,18.8,8.7l12.8,7.4
			c0,0.2,6,2.9,10.1,4.1c-0.3-0.9-0.6-1.6-1.4-2.7c1.9,0.7,2.2,0.8,2.2,0.8c0.1-0.1-0.4-0.5,1.1-0.8v2c-0.5,0.4-1.4,0.7-2,1.4
			c1.1,0.7,1.9,2,4.1,2c1.2,0,2,1.6,2,2c0,0,4,2.7,5.4,2.7c0.7,0,0.7,2,3.4,2c0.1,0,4.6,6,9.4,6c0,0,4.6,4.7,8.7,4.7
			c0.9,0-0.9,1.6,4.7,0.7c-1.6-2.2-2.5-3.4-4.7-3.4c-0.2,0-0.3-2-5.4-2c0,0,0.5-2-3.4-2l-8.1-7.4c0-1.9-3.4,0-3.4,0
			s-18.4-18.1-22.2-18.1l-12.8-6h2c-3.4-3.7-2-0.7-2-0.7v-2l12.1,5.4c0,0,16.5,9.3,19.5,11.4c0.2-4.1-3.5-3.8-6.7-8.1
			c2,1.2,3.6,2,6,2L220.1,88c0,0,3.9,3.7,5.4,5.4l3.4-3.4c-9.1-6.5-9.8-6.1-10.1-8.1c1.6,1.4,11.2,7.9,13.5,8.7
			c-1.5,3.2-1.4,2.7-3.4,4.1c1.6,2.3,0.7,1.7,4.7,4.1c0.4-0.9,0.2-1.7,0-2.7h2c6.4,5.1,11.5,5.3,12.8,10.1c-0.7-0.5-5.5-4.1-6.7-4.1
			c-0.9,0-0.3-0.2-4.7-2v2c17.9,13.8,17.6,13.5,20.2,16.1c-0.9,0.1-1.8,0.3-2,1.4c-4.1-1.9-2.5-2.2-6.7-1.4
			c3.1,2.4,7.1,4.6,8.1,10.1h-2c-1.4-1.9-14.4-12.7-19.5-16.1c-0.9,0.9-1,1.2-0.9,1.4c0.2,0.2,1.2-0.6-1.1-0.7
			c0.3,4.5,2.7,3.3,2.7,8.1c0,0.5,19.5,18.2,19.5,18.8c0,0,8.7,6.9,8.7,8.7c0,0,11.4,8.2,11.4,13.5c0,1.4,4.5,5.9,8.7,10.1
			c-1-0.5-6.6-4.2-10.1-10.1c-0.4-2.8-0.7-3.4-4.7-3.4L249,142.5l-0.2-8.6h-12.6v5.9h-6v-6h-12.1v6h-6v-6h-11.4v17.9l8.7,0.2
			l-5.4,32.3c0,0-10.3-7.5-10.8-8.1h-2c0.7,2.6,9.6,12,11.8,13.1l-2.4,12.6c0,0.2-0.2-0.2-6.7-0.2l-7.4-40.3c0.9-0.4,1.7,0,2.7,0
			c2.1,0,11.4,6,15.4,11.4c0,0-12.7-8.8-12.7-11l-0.1-15.2h-9.4c0,2.2-0.1,2.9,0,4.7c-2.4,0.2-1.4,0.2-4.7,0v-4.7h-9.4v4.7h-6v-5.5
			h-13.5l8.1-0.6c0,0,0.2-2.3,0-5.4c1,0.2,1.7,0.2,2.7,0c-2.9-2.4-1.3-0.5-2.7,0c0.3-6.1,0-4.5,0-12.8h-13c0,0-0.1,2-1,2
			c-0.6,0-5.8-4.1-14.1-6.7v2.7h2c2.4,0.7,11,5,13.5,8.1h-6.7l0.1-5.4H124v6h-6v-6h-14.1v17.5h10.8l-6,43l-10.1-62.5H112v-22.2
			c-2.1-1.5-11.4-2.7-11.4-2.7s-14.7-6-20.2-6H77c-0.1,0,0.9-2-4.7-2v2c1.7,0.2,1.6,0,3.4,0c0.2,0,7.7,4.3,22.9,8.1h-4.1
			c-1.8,2.3-1.4,7.4-1.4,7.4H85c0,0,1.1-8.2-3.4-7.4h-8.7c-1.5-0.5-3-0.9-5.4-1.4v3.4c-1,0.1-1.7,0-2.7,0c-4.6,0-19.1-6.7-23.6-6.7
			h-4.7c-0.7,0,0.7-2,0-2c-5.2,0-4.8-2.6-8.1-4.1h5.4v2c0.9,0.7,4.8,3.4,10.8,3.4c1.5,0,1.9,2.7,4.1,2.7c1.1,0,9.5,0.7,12.1,3.4h4.7
			c-1-1.3-4.3-3.4-7.4-3.4c-0.2,0-1.1-0.7-3.4,0v-2c3,0.3,5.5,1.9,8.7,0l2,2l1.4-1.4C64.7,97,57,94,54.7,94c-1.6,0-0.9-2-7.4-2h-2.8
			c-0.3,0,0.3-2.7-5.4-2.7h-2c0,0-0.1-0.8-2-2h10.1c0,0,8.7,4.6,8.7,4.7c0,4.7,9.2,0,9.4,0c0,0,0.2,1.1,3.4,2.7v-2
			c-4.3-1.5-7.7-3.4-12.1-3.4c0,0,1.4-2-5.4-2h-4.7c-0.5,0,1.4-2-3.4-2h-4.7c0,0,1.9-1.8-4.7-2.7c-0.9-0.1-1.8,0-2.7,0
			c2.5-0.5,5.6-0.7,12.1-0.7c0.8,0-2.1,2,3.4,2H50c0.5,0-2.7,2,2,2c0.2,0,6,3.4,11.4,3.4c4.7,0,7.4-0.5,12.1,0v-2
			c-2-1.7,0.9-0.5-20.8-6.7h2c3.4,0,5,0.3,7.4,2h2.7V80h-2c-9-1.8-10.1-1.6-14.1-4.1h-2l0.7,1.4c-3.4-4.1-2.6-1.9-4.7-1.4
			c0.8-0.5,7.8,0,26.2,0c2.4,0-2.8,2,3.4,2c1.8,0-2.2,1.8,4.1,0c-0.8-1.3-1.3-2-2.7-2h-3.4c0,0-4.6-2.3-6-3.4c-0.5-1.2-0.9-2-2-2
			c-0.7,0-1.8-2-6-2c0,0-3.2-3.4-12.1-3.4c-0.1,0-1.2-2-5.4-2c0,0-0.5-1.6-4.7-2.7c7.1-0.5,20.9,5.4,22.9,5.4c2.4,0,1.6-0.5,2.7-2.7
			c1.7,0.3,3,0.2,4.7,0v-3.4c0.9-0.1,10.1-0.2,11.4,0v-2c-1-0.4-1.1,0.2-2,0l6.7-1.4c0.2,0-0.3,2,4.1,2H90c0,0,0.3,1.3,3.4,2.7v-2
			c-3-2.1-7.8-4.2-12.1-6.7c9.3,2.5,16,7.9,20.8,10.1v-2c-4-2.8-8.1-4.7-9.4-7.4c4.3,3,6.3,5.3,10.4,4c-0.3-0.2-11-7.3-16.8-10.1
			C87.6,47.1,109.9,53.9,109.9,55.1z M40.7,224.5c-0.7-0.9-1.9-2-2.7-3.4C39,222,40.1,223.1,40.7,224.5z M30.6,215.8
			c-2.3-2.3-2.3-2.7-2.7-3.4C30.1,214.7,30.2,215.1,30.6,215.8z M15.7,208.4h2c1,0.9,1.8,1.9,2,3.4
			C18.6,210.1,17.3,209.6,15.7,208.4z M1,201c-0.7-0.7-1.5-1.4-2.7-2C-1.7,199,0,199.2,1,201z M247.7,190.9c0.5,3.8-0.2,0.3,2,5.4
			h-2C247.2,194.3,247.4,193,247.7,190.9z M260.5,191.6c-1.1-0.7-2.1-1.5-2.7-2.7L260.5,191.6z M292.8,184.2
			c-1.2-1.2-1.3-2.7-2.7-2.7c-1.3,0-2.7-2.2-3.4-4.1C290.2,178,292.3,180.7,292.8,184.2z M-4.4,176.8h2c2.8,3.7,8.5,3.9,10.1,10.1
			C4.8,182.5-1.4,179.2-4.4,176.8z M-7.1,174.1l0.7,1.4h-2L-7.1,174.1z M253.1,181.5c1.2,0,2.9,1.8,3.4,5.4
			c-3.5-5.9-5.7-0.5-13.5-13.5C248,175,250.5,181.5,253.1,181.5z M263.2,174.8c-3.7-2.7-6.7-5.9-8.1-8.7
			C261.2,172.1,261.9,172.6,263.2,174.8z M-20.5,164c0,0,3.7,3.5,7.4,6.7c-1-0.4-2.7,0-3.4,0c-2.8,0,0-2.7,0-2.7s-2.4-1.1-5.4-3.4
			L-20.5,164z M-3.1,168.1c-2.7-2.3-5.1-2.4-5.4-5.4C-7,164.4-4.2,163.6-3.1,168.1z M261.2,181.5c-3.1-2-19-14.5-20.2-20.2
			L261.2,181.5z M31.9,153.3h2c1.6,1.4,1.8,1.5,2.7,2c-2.7-0.7-2.5-1.3-4.7,0C31.9,155.3,31.9,153.3,31.9,153.3z M151.6,148.3v12.4
			h8.1l-4.9,29.4l-8.9-43.8L151.6,148.3z M249.7,145.9c0,0,8.7,7.2,8.7,8.7c0,0,19.5,19,19.5,20.8c0,0.9,1.6-0.3,2.7,4.1
			c0,0-8.6-10.6-8.7-10.8c-2.5,2.2-2.7,2.3-2.7,3.4c0,1.3,2,2,4.1,4.7c-4.6-1.5-17.4-16.3-28.2-22.9c1.1,4.1,4.2,6.3,8.1,9.4
			c-0.9-0.5-9.4-6-9.4-8.1c0-0.5-1.8-0.2-4.1-2.7v-2c2.1,0.2,10,0,10,0S249.7,144.5,249.7,145.9z M12.4,141.8c0.3,0-1.6,0.5,4.7,4.1
			h-2c-3.4-2.4-6.3-3.2-10.8-4.1H12.4z M-3.1,141.2c0,0,0.6,0.4,4.1,3.4c-1.7-1-2.8-2-4.7-2c-0.7,0-1.3-0.2-2,0
			C-4.7,142-4.2,141.2-3.1,141.2z M261.9,137.1c1.2,2.2,0.2,0.6,0,2h2C263.1,139,262.4,139,261.9,137.1z M-1,138.5h-2
			c-1.1-0.7-3-1.7-4.7-2.7C-4.4,136.2-4.4,136.6-1,138.5z M255.8,133.1c1.2,0.8,2.1,1.4,3.4,2c-2.2-0.7-2.6-0.2-3.4,0L255.8,133.1
			L255.8,133.1z M214.1,129.8l-0.7,1.4l-0.7-0.7L214.1,129.8z M1.7,129.1c15.5,9.3,17.9,9.7,19.5,8.1c-8.3-4.9-7.5-3.3-10.1-6.7
			c0,0,14.7,7.4,14.8,7.4c0.2,0,25.7,20.4,25.9,21l-10.4,62.4c-0.1,0-10.6-13.5-16.8-13.5c0,0,0.7,0-3.4-2.7h-2.7
			c0.7,1.3,0.8,1,1.4,2.7c-0.9-1.5-6.3-5-15.4-11.4c5.3,2.5,5.7,4.4,10.1,4.7c-0.6-1.2-0.7-1.6-0.9-1.9c-0.7-0.8-2.5-0.6-18.6-11.5
			c6,1.1,10.8,5.9,10.8,6c0,0.3,2.3,1,6,2.7v-2c-2-1.6-3.4-2.8-4.7-4.1c5.8,3.4,4.1,4.1,6.7,4.1l11.4,8.7c0,0,0-0.5,3.4-1.4
			c-2.1-6.2-3.5-1.6-4.1-6.7h-2.7c0,0-38.6-32.7-39-34.3c1.1-0.2,2.1,0.1,3.4,0c-3.4-7.3-2.9-1-6.7-7.4h2c4.8,3.7,8.3,3.7,22.2,12.8
			c9.3,6,10.3,13.5,18.8,13.5c0.6,0-0.2,1.3,0,2h2.7v-3.4c-5.8-6.4-6-3.2-6-6.7c0-1.9-3.2-3-4.1-3.4v-2c2.3-2.3,1.1-0.5,2-3.4
			c-1.8-1.3-2.6-3.4-4.7-3.4c0,0-6.7-3.6-8.1-5.4c2.2,0.9,3.6,2,6,2c0,0,15.6,14.2,22.9,12.8c-4.2-7.1-7.4-3.6-7.4-4.7
			c0-1.3-0.1-2.1,0-3.4h-2h2.7v-2l0.7-1.4c-2.3-0.2-14.2-5.5-16.1-8.7v-2c2.1,0.2,3.3,0,5.4,0c0,0,7.5,6,11.4,6c1,0,5.2-4.2,9.4,0
			v-2c-0.3-4.1,1.1-4.1-2.7-4.1c0,0-5.9-2.7-7.4-2.7c-1.7,0-4.8,3.8-6.7-2c-5.4-4.3-5.5-2.8-7.4-2.7c0.7,1,1.6,2,2,3.4
			c-10.4-7.3-17.1-12-19-13.4L1.7,129.1L1.7,129.1z M252.4,131.7c-0.5-0.8-1.1-1.6-2-2.7C251.4,129.8,252,130.5,252.4,131.7z
			 M178.5,131.1c-0.3-0.9-0.7-1.6-0.7-2.7h0.7V131.1z M57.4,125.1l-1.4,8.1c-6.7-6.7-5.9-7.5-6.7-8.1H57.4z M-3.7,124.3
			c-1.2,0.2-1.5,0.4-1.5,0.4c0.1,0.1,1.2,0-1.2-0.4H-3.7z M243.7,123h-2l0.7-2C242.5,121.9,243.4,122.6,243.7,123z M172.6,127.2
			c2.1,0.3,2.1,0.5,3.4,1.4c-0.1,0-8.3-3.1-10.8-6.7C170.7,125.5,171.7,124.5,172.6,127.2z M33.9,108.9c1.6,0.7,2,0.5,3.4,0v2
			c-1.2-0.3-2.1-0.3-3.4,0V108.9z M125.3,107.6h2c1.8,0.2,11,3.2,12.8,7.4c-1.5-1.8-2.6-1.3-3.4-3.4c-3.1,0.5-4.7-1.7-8.7-2.7
			C127.4,108,126.4,107.8,125.3,107.6z M59.5,106.9h2c2,1.6,3.7,2.3,6,3.4h-8.1C59.4,109.5,59.4,108.5,59.5,106.9z M1.7,106.9
			c-0.6,0.4-1.4,0.3-2,0H1.7z M149.6,106.9c-0.4-0.1-1.4-0.2-2,0C148.4,106.6,148.9,106.6,149.6,106.9z M42,105.5
			c0.2,3.1,0.2,3.4-0.7,5.4c-0.3-4.2-0.1-3.5-4.7-4.7C38.5,106.2,39.8,106.5,42,105.5z M233.6,104.9c0.7,0.5,1.1,1.1,2,1.4
			c-1-0.1-1.8-0.1-2.7,0L233.6,104.9z M255.1,110.9c-1.2-3.2-2.4-4.7-3.4-6.7C256.9,108,255.4,108.3,255.1,110.9z M0.3,103.5
			c2.1,0.2,3.3,0,5.4,0c0,0,5.6,4.1,10.1,4.1c0.4,0,0.6,2,5.4,2c0.9,0,3.7,4.7,11.4,4.7c0,0,9,3.5,10.1,4.7v4.1c-2.3-0.8-3.6-2-6-2
			L21.8,113c-4.4,0-13.7-7.4-19.5-7.4c0,0-0.4-0.5-2,0L0.3,103.5L0.3,103.5z M220.2,103.5c0,0,9.4,6,11.4,10.1c-0.3-0.7-0.2-1.3,0-2
			h-2c0,0-9.3-7.6-11.4-6.7c-0.7-2.7-0.2-1.2-2-3.4C220.4,104.3,217.4,103.5,220.2,103.5z M40.7,98.8c0.2,0,1.2,2.7,6,2.7
			c0.6,0,0.9,0.9,2,1.4H46c-3.2-1.6-5.3-2.7-7.4-3.4C39.8,99.5,39.8,98.8,40.7,98.8z M219.5,96.1l-0.7,1.4c0-0.2-0.5-0.1-0.7,0
			L219.5,96.1z M126.7,97.5c-1.6-0.3-2.6-0.5-4.1,0C125.3,95.9,123.5,96.6,126.7,97.5z M43.4,92.7c3.3,1.1-0.2-0.7,6.7,2.7h-5.4
			c0,0-0.9-0.6-4.1-2.7H43.4z M140.8,92.7c-2.2-0.9-0.5-0.5-2,0C139.4,92.4,140.3,92.4,140.8,92.7z M111.3,90.8l0.7,1.4
			c-0.7-0.3-1.6-0.2-2,0L111.3,90.8z M106.5,90.1h2l-1.4,0.7L106.5,90.1z M31.9,86.7c0,0,0.8,1.2,2.7,2.7c-3.8,0-6.5-1.5-8.7-2
			C29.7,87.1,31.9,86.7,31.9,86.7z M128.6,76c5.3,2.6,6.3,1.4,8.1,4.7c-2-1.8-4.1-2-6.7-2l-4.1-2.7H128.6z M16.4,82.7
			c0,0,0.5,1.4,5.4,2h-2c-2.2-0.4-7.3-1.9-8.1-2C14.3,82.8,14.8,82.7,16.4,82.7z M224.8,82.7h-2.7c1.2-0.5,1.4-0.6,1.4-0.7
			C223.5,82,223.3,82.2,224.8,82.7z M22.5,78c-0.9,1.5-1,0.3,0,2c-3.9-0.9-1.4-1.1-4.7,0v-2C19.6,78.2,20.7,78.2,22.5,78z M40,77.3
			c0.2,0-2,1.6,7.4,3.4c-5.5,0.3-6-2.7-16.1-3.4C31.2,77.3,40,77.3,40,77.3z M166.4,73.9c0.2,0.1,2.1,0.5,4.1,3.4
			c-0.5,0-0.9,0.4-1.4,0.7c0-0.2-0.2-1.2-1.4-2c-1.2-0.2-0.5,0.3-1.4,0.7C166.6,76.1,167,75.2,166.4,73.9z M3,73.2
			c3.6,0.9,1.7,1.2,4.7,0v2c-4.1-0.9-1.8-0.9-4.7,0V73.2z M12.4,71.9c0,0,11.4,3.6,14.1,4.7c-1-0.1-3.7,0-5.4,0
			c-0.1,0-1.9-2.7-7.4-2.7c-0.6,0-5.9-2.8-10.1-3.4C11.1,70.6,5.8,71.9,12.4,71.9z M200,67.9v2c-1.3-0.6,0.1,1.1-2.7-2
			C200.6,71.2,198.6,68.5,200,67.9z M159,67.9l-0.7,1.4c0-0.2-0.5-0.1-0.7,0L159,67.9z M81,67.9c-3.3,1.9-4.2,0.6-7.4,0
			C76.1,67.9,77.6,68.9,81,67.9z M107.2,67.2c0.2,0,0.5,3,3.4,2c2.2,3.4,1.9,1.4,3.4,1.4c-0.6,0.2-3.9,0.7-4.7,0.7l-8.1-4.1
			C102.8,67.1,103.8,67.2,107.2,67.2z M90.4,67.2v0.7h-2v-0.7H90.4z M93.7,67.2c-0.5-0.1-0.9-0.2-1.4-0.7L93.7,67.2z M202,64.5
			c3.3,1.3,3.8,1.4,4.7,4.1C204.4,65.8,204.3,66.5,202,64.5z M81,63.8c0.4,0,0.7,1.8,4.1,2c-3,0.6-3.1,0.7-6,0.7c0,0-0.5-1-3.4-2
			C78.1,64.3,81,63.8,81,63.8z M163,63.8c0,0,1.6,1.1,4.7,3.4c-3-2.1-4.1-2.3-6.7-3.4C161.8,64,162.7,63.8,163,63.8z M74.2,63.2
			c-2.7,0.7-3.7,0.3-5.4,1.4C70.3,64.1,73.7,63.3,74.2,63.2z M54.1,60.5c-1,0.2-1.8,0.3-2.7,0C52,60.5,53,60.6,54.1,60.5z
			 M169.1,54.4c1.8,1.8,0.9,0.2,0,2V54.4z M64.8,53.1v2c-1.8-1.1-2.9-1.8-5.4-2C60.5,53.2,62.7,53.3,64.8,53.1z M148.2,51.7
			c1.5,0.8,0.7,0.7,2,0v2h-2V51.7z M134.1,48.4c-2.5-0.8-2.8-0.7-4.1-2.7C131.3,46.4,132.3,47,134.1,48.4z"/>
	</g>
</g>
</svg>
